<svg width="257" height="243" viewBox="0 0 257 243" fill="none" xmlns="http://www.w3.org/2000/svg">
<path fill-rule="evenodd" clip-rule="evenodd" d="M221.547 70H208V17.7812L191.828 22.7969V11.7812L220.094 1.65625H221.547V70ZM66.9112 13.3312L56.7732 3.03748L36.497 23.625L16.2209 3.03748L6.08284 13.3312L26.359 33.9187L6.08284 54.5062L16.2209 64.8L36.497 44.2125L56.7732 64.8L66.9112 54.5062L46.6351 33.9187L66.9112 13.3312ZM31.2969 170.941C41.118 117.422 77.6182 79.7513 139.92 58.2236L110.042 45.449L115.114 33.4125L153.872 49.9835L153.898 49.9263L157.152 51.3855L165.57 54.9847L165.507 55.1327L165.757 55.2448L143.463 105.682L131.603 100.363L144.878 70.3327C87.0492 90.0952 53.8419 123.732 44.4043 171.527C60.4911 175.224 72.4872 189.615 72.4872 206.803C72.4872 226.794 56.2604 243 36.2436 243C16.2268 243 0 226.794 0 206.803C0 188.488 13.6203 173.35 31.2969 170.941ZM181.978 160.481L192.116 170.775L171.84 191.362L192.116 211.95L181.978 222.244L161.702 201.656L141.426 222.244L131.288 211.95L151.564 191.362L131.288 170.775L141.426 160.481L161.702 181.069L181.978 160.481ZM59.4395 206.803C59.4395 219.597 49.0543 229.969 36.2436 229.969C23.4329 229.969 13.0477 219.597 13.0477 206.803C13.0477 194.009 23.4329 183.637 36.2436 183.637C49.0543 183.637 59.4395 194.009 59.4395 206.803Z" fill="#FF0000"/>
</svg>
